<svg width="94" height="13" viewBox="0 0 94 13" fill="none" xmlns="http://www.w3.org/2000/svg">
<path d="M4.91795 0.768L3.73395 7.472C3.69128 7.74933 3.66995 7.94133 3.66995 8.048C3.66995 8.53867 3.80861 8.91733 4.08595 9.184C4.36328 9.44 4.77395 9.568 5.31795 9.568C5.95795 9.568 6.48061 9.38667 6.88595 9.024C7.29128 8.66133 7.55261 8.144 7.66995 7.472L8.85395 0.768H11.5899L10.4059 7.472C10.2246 8.48533 9.86195 9.344 9.31795 10.048C8.78461 10.7413 8.12861 11.2587 7.34995 11.6C6.58195 11.9413 5.74461 12.112 4.83795 12.112C3.66461 12.112 2.71528 11.808 1.98995 11.2C1.27528 10.592 0.917946 9.712 0.917946 8.56C0.917946 8.21867 0.949946 7.856 1.01395 7.472L2.18195 0.768H4.91795ZM15.9912 12.112C14.7752 12.112 13.7832 11.8507 13.0152 11.328C12.2579 10.7947 11.8792 10.0427 11.8792 9.072C11.8792 8.976 11.8899 8.832 11.9112 8.64H14.7592C14.7272 9.04533 14.8232 9.36533 15.0472 9.6C15.2712 9.83467 15.6125 9.952 16.0712 9.952C16.4872 9.952 16.8125 9.86133 17.0472 9.68C17.2925 9.49867 17.4152 9.24267 17.4152 8.912C17.4152 8.57067 17.2605 8.29333 16.9512 8.08C16.6525 7.86667 16.1832 7.62667 15.5432 7.36C14.9245 7.104 14.4179 6.864 14.0232 6.64C13.6392 6.40533 13.3032 6.09067 13.0152 5.696C12.7272 5.30133 12.5832 4.80533 12.5832 4.208C12.5725 3.472 12.7539 2.832 13.1272 2.288C13.5005 1.744 14.0179 1.328 14.6792 1.04C15.3405 0.752 16.0979 0.608 16.9512 0.608C17.7192 0.608 18.4019 0.730666 18.9992 0.976C19.5965 1.21067 20.0605 1.55733 20.3912 2.016C20.7219 2.464 20.8872 2.99733 20.8872 3.616C20.8872 3.776 20.8819 3.89333 20.8712 3.968H17.9592C17.9699 3.92533 17.9752 3.86133 17.9752 3.776C17.9752 3.47733 17.8685 3.23733 17.6552 3.056C17.4525 2.864 17.1699 2.768 16.8072 2.768C16.4232 2.768 16.1085 2.864 15.8632 3.056C15.6285 3.23733 15.5112 3.488 15.5112 3.808C15.5112 4.128 15.6605 4.4 15.9592 4.624C16.2579 4.83733 16.7219 5.088 17.3512 5.376C17.9805 5.664 18.4925 5.93067 18.8872 6.176C19.2925 6.42133 19.6392 6.752 19.9272 7.168C20.2152 7.57333 20.3592 8.07467 20.3592 8.672C20.3592 9.33333 20.1832 9.92533 19.8312 10.448C19.4792 10.9707 18.9725 11.3813 18.3112 11.68C17.6499 11.968 16.8765 12.112 15.9912 12.112ZM25.8163 2.928L25.4163 5.264H29.0803L28.7123 7.328H25.0483L24.6003 9.84H28.7443L28.3603 12H21.4803L23.4643 0.768H30.3443L29.9603 2.928H25.8163ZM36.7126 0.768C37.8752 0.768 38.7606 1.03467 39.3686 1.568C39.9766 2.09067 40.2806 2.77333 40.2806 3.616C40.2806 3.86133 40.2592 4.09067 40.2166 4.304C40.0886 5.05067 39.7632 5.71733 39.2406 6.304C38.7179 6.89067 38.0192 7.30667 37.1446 7.552L38.9526 12H35.8646L34.2806 7.76H33.6246L32.8726 12H30.1366L32.1206 0.768H36.7126ZM37.4166 4.416C37.4379 4.24533 37.4486 4.13333 37.4486 4.08C37.4486 3.73867 37.3366 3.47733 37.1126 3.296C36.8992 3.104 36.5792 3.008 36.1526 3.008H34.4566L33.9606 5.824H35.6566C36.1579 5.824 36.5526 5.70133 36.8406 5.456C37.1392 5.21067 37.3312 4.864 37.4166 4.416ZM45.0381 12.112C43.8221 12.112 42.8301 11.8507 42.0621 11.328C41.3047 10.7947 40.9261 10.0427 40.9261 9.072C40.9261 8.976 40.9367 8.832 40.9581 8.64H43.8061C43.7741 9.04533 43.8701 9.36533 44.0941 9.6C44.3181 9.83467 44.6594 9.952 45.1181 9.952C45.5341 9.952 45.8594 9.86133 46.0941 9.68C46.3394 9.49867 46.4621 9.24267 46.4621 8.912C46.4621 8.57067 46.3074 8.29333 45.9981 8.08C45.6994 7.86667 45.2301 7.62667 44.5901 7.36C43.9714 7.104 43.4647 6.864 43.0701 6.64C42.6861 6.40533 42.3501 6.09067 42.0621 5.696C41.7741 5.30133 41.6301 4.80533 41.6301 4.208C41.6194 3.472 41.8007 2.832 42.1741 2.288C42.5474 1.744 43.0647 1.328 43.7261 1.04C44.3874 0.752 45.1447 0.608 45.9981 0.608C46.7661 0.608 47.4487 0.730666 48.0461 0.976C48.6434 1.21067 49.1074 1.55733 49.4381 2.016C49.7687 2.464 49.9341 2.99733 49.9341 3.616C49.9341 3.776 49.9287 3.89333 49.9181 3.968H47.0061C47.0167 3.92533 47.0221 3.86133 47.0221 3.776C47.0221 3.47733 46.9154 3.23733 46.7021 3.056C46.4994 2.864 46.2167 2.768 45.8541 2.768C45.4701 2.768 45.1554 2.864 44.9101 3.056C44.6754 3.23733 44.5581 3.488 44.5581 3.808C44.5581 4.128 44.7074 4.4 45.0061 4.624C45.3047 4.83733 45.7687 5.088 46.3981 5.376C47.0274 5.664 47.5394 5.93067 47.9341 6.176C48.3394 6.42133 48.6861 6.752 48.9741 7.168C49.2621 7.57333 49.4061 8.07467 49.4061 8.672C49.4061 9.33333 49.2301 9.92533 48.8781 10.448C48.5261 10.9707 48.0194 11.3813 47.3581 11.68C46.6967 11.968 45.9234 12.112 45.0381 12.112ZM60.7032 3.68C60.5859 4.34133 60.3139 4.89067 59.8872 5.328C59.4605 5.76533 58.9485 6.06933 58.3512 6.24C58.8845 6.35733 59.3059 6.61867 59.6152 7.024C59.9245 7.42933 60.0792 7.904 60.0792 8.448C60.0792 8.61867 60.0632 8.784 60.0312 8.944C59.8712 9.88267 59.4125 10.6293 58.6552 11.184C57.8979 11.728 56.9325 12 55.7592 12H50.5272L52.5112 0.768H57.5672C58.5805 0.768 59.3645 0.976 59.9192 1.392C60.4739 1.808 60.7512 2.384 60.7512 3.12C60.7512 3.30133 60.7352 3.488 60.7032 3.68ZM56.2232 5.328C56.6819 5.328 57.0499 5.22667 57.3272 5.024C57.6045 4.82133 57.7752 4.528 57.8392 4.144C57.8499 4.08 57.8552 3.99467 57.8552 3.888C57.8552 3.57867 57.7539 3.344 57.5512 3.184C57.3485 3.01333 57.0499 2.928 56.6552 2.928H54.8632L54.4472 5.328H56.2232ZM57.3112 8.576C57.3325 8.448 57.3432 8.352 57.3432 8.288C57.3432 7.97867 57.2312 7.73867 57.0072 7.568C56.7832 7.38667 56.4739 7.296 56.0792 7.296H54.0952L53.6472 9.824H55.6632C56.1325 9.824 56.5059 9.71733 56.7832 9.504C57.0605 9.29067 57.2365 8.98133 57.3112 8.576ZM64.1781 9.92H67.7621L67.3941 12H61.0741L63.0581 0.768H65.7941L64.1781 9.92ZM74.0431 12.112C73.0937 12.112 72.2564 11.9147 71.5311 11.52C70.8164 11.1253 70.2617 10.5707 69.8671 9.856C69.4724 9.14133 69.2751 8.32 69.2751 7.392C69.2751 6.08 69.5577 4.912 70.1231 3.888C70.6884 2.85333 71.4724 2.048 72.4751 1.472C73.4884 0.896 74.6351 0.608 75.9151 0.608C76.8751 0.608 77.7177 0.805333 78.4431 1.2C79.1684 1.584 79.7284 2.13333 80.1231 2.848C80.5177 3.552 80.7151 4.36267 80.7151 5.28C80.7151 6.592 80.4324 7.77067 79.8671 8.816C79.3017 9.85067 78.5124 10.6613 77.4991 11.248C76.4857 11.824 75.3337 12.112 74.0431 12.112ZM74.4591 9.584C75.1631 9.584 75.7817 9.40267 76.3151 9.04C76.8484 8.67733 77.2591 8.192 77.5471 7.584C77.8457 6.96533 77.9951 6.29867 77.9951 5.584C77.9951 4.816 77.7817 4.21333 77.3551 3.776C76.9284 3.33867 76.3311 3.12 75.5631 3.12C74.8591 3.12 74.2351 3.30133 73.6911 3.664C73.1577 4.02667 72.7417 4.512 72.4431 5.12C72.1551 5.71733 72.0111 6.37867 72.0111 7.104C72.0111 7.872 72.2244 8.48 72.6511 8.928C73.0777 9.36533 73.6804 9.584 74.4591 9.584ZM81.8212 6.368C82.0132 5.25867 82.4239 4.272 83.0532 3.408C83.6932 2.53333 84.4879 1.856 85.4372 1.376C86.3865 0.885333 87.4159 0.639999 88.5252 0.639999C89.8692 0.639999 90.9465 0.965333 91.7572 1.616C92.5785 2.26667 93.0265 3.168 93.1012 4.32H90.0932C89.9545 3.94667 89.7092 3.664 89.3572 3.472C89.0159 3.26933 88.5945 3.168 88.0932 3.168C87.2079 3.168 86.4452 3.46133 85.8052 4.048C85.1759 4.624 84.7759 5.39733 84.6052 6.368C84.5519 6.688 84.5252 6.96533 84.5252 7.2C84.5252 7.98933 84.7545 8.59733 85.2132 9.024C85.6719 9.45067 86.3225 9.664 87.1652 9.664C87.8479 9.664 88.4505 9.49333 88.9732 9.152C89.4959 8.8 89.9172 8.304 90.2372 7.664H86.7812L87.1172 5.664H93.0692L92.6212 8.208C92.3012 8.89067 91.8425 9.52533 91.2452 10.112C90.6585 10.6987 89.9599 11.1733 89.1492 11.536C88.3385 11.8987 87.4639 12.08 86.5252 12.08C85.5545 12.08 84.7012 11.8933 83.9652 11.52C83.2399 11.136 82.6799 10.6027 82.2852 9.92C81.9012 9.23733 81.7092 8.44267 81.7092 7.536C81.7092 7.22667 81.7465 6.83733 81.8212 6.368Z" fill="#BE48EB"/>
</svg>
